PathFileType	4	(X/Y/Z)	E:\3-PhD\Data\MocapData\ElaboratedData\015\pre\dynamicElaborations\Run_baselineA1\Run_baselineA1.trc
DataRate	CameraRate	NumFrames	NumMarkers	Units	OrigDataRate	OrigDataStartFrame	OrigNumFrames
200	200	4	61	mm	200	8.550000e+02	99
Frame#	Time	FHD			LBHD			RBHD			C7			T10			CLAV			LSHO			LUUPA			LMUPA			LDUPA			LLEP			LMEP			LRAD			LUL			LRFIN			RSHO			RUPA1			RMUPA			RDUPA			RLEP			RMEP			RRAD			RUL			RUFIN			LASI			RASI			USACR			LSACR			RSACR			LTHI1			LTHI2			LTHI3			LTHI4			LLFC			LMFC			LTIB1			LTIB2			LTIB3			LTIB4			LLMAL			LMMAL			LHEE			LMT1			LMT5			LMT2			RTHI			RTHI2			RTHI3			RTHI4			RLFC			RMFC			RTIB1			RTIB2			RTIB3			RTIB4			RLMAL			RMMAL			RHEE			RMT1			RMT2			RMT5		
		X1	Y1	Z1	X2	Y2	Z2	X3	Y3	Z3	X4	Y4	Z4	X5	Y5	Z5	X6	Y6	Z6	X7	Y7	Z7	X8	Y8	Z8	X9	Y9	Z9	X10	Y10	Z10	X11	Y11	Z11	X12	Y12	Z12	X13	Y13	Z13	X14	Y14	Z14	X15	Y15	Z15	X16	Y16	Z16	X17	Y17	Z17	X18	Y18	Z18	X19	Y19	Z19	X20	Y20	Z20	X21	Y21	Z21	X22	Y22	Z22	X23	Y23	Z23	X24	Y24	Z24	X25	Y25	Z25	X26	Y26	Z26	X27	Y27	Z27	X28	Y28	Z28	X29	Y29	Z29	X30	Y30	Z30	X31	Y31	Z31	X32	Y32	Z32	X33	Y33	Z33	X34	Y34	Z34	X35	Y35	Z35	X36	Y36	Z36	X37	Y37	Z37	X38	Y38	Z38	X39	Y39	Z39	X40	Y40	Z40	X41	Y41	Z41	X42	Y42	Z42	X43	Y43	Z43	X44	Y44	Z44	X45	Y45	Z45	X46	Y46	Z46	X47	Y47	Z47	X48	Y48	Z48	X49	Y49	Z49	X50	Y50	Z50	X51	Y51	Z51	X52	Y52	Z52	X53	Y53	Z53	X54	Y54	Z54	X55	Y55	Z55	X56	Y56	Z56	X57	Y57	Z57	X58	Y58	Z58	X59	Y59	Z59	X60	Y60	Z60	X61	Y61	Z61	
929	4.640000	-1839.594835	1479.877338	288.643385	-1977.134498	1526.460535	280.975571	-1984.465963	1521.154206	408.069542	-2115.270622	1431.231323	344.208034	-2284.900559	1149.004408	274.549836	-2010.351923	1299.699794	318.538336	-2049.298458	1414.319195	152.298546	-2129.378678	1277.368855	28.285589	-2130.877402	1225.346340	35.983304	-2157.706151	1229.433609	-14.123126	-2218.185536	1188.803684	-58.675391	-2275.166743	1162.949131	20.386011	-2151.658096	931.752866	-39.438856	-2125.649668	958.438056	27.129088	-2073.061482	887.721584	26.272505	-2061.416005	1336.791396	518.756888	-2142.829234	1176.946872	601.342137	-2119.396401	1137.181300	589.502386	-2165.318472	1112.387211	619.431431	-2189.906337	1004.271735	623.656202	-2237.100377	1002.730908	554.110304	-1993.816778	919.152733	472.870104	-2004.913423	849.877661	502.438273	-1915.489760	896.009273	478.532224	-2173.231359	940.957549	169.971628	-2210.155510	956.085265	412.055490	-2342.516390	1050.005664	266.310107	-2352.376167	1017.978064	239.473028	-2360.844853	1024.094182	295.289304	-2209.679077	640.811801	96.590745	-2155.568134	575.694353	99.486623	-2109.244301	583.960475	110.210968	-2163.861524	520.501151	126.810840	-2164.142203	463.540209	141.547602	-2161.862437	461.417123	274.034912	-2295.907271	415.652771	184.090244	-2335.728169	471.916673	127.287114	-2340.285774	437.653050	153.148856	-2421.517184	447.813052	182.107907	-2535.232147	521.280741	152.627425	-2531.458519	508.579997	240.265042	-2590.887624	592.868643	198.634123	-2588.401930	381.366349	226.891433	-2605.864638	413.009714	125.854402	-2582.036234	378.131244	177.707605	-2219.318241	776.434804	486.743033	-2168.809525	735.747838	483.418727	-2139.250510	746.582267	467.309385	-2175.729990	650.000786	479.998470	-2163.333499	459.095887	435.756797	-2152.972895	456.608296	291.226185	-2182.738546	250.788913	378.381539	-2279.475820	207.142538	409.693100	-2239.130327	187.129410	395.114881	-2250.526080	142.815777	359.884160	-2324.464924	102.774970	380.432297	-2313.899098	110.484287	296.973181	-2412.860949	56.870949	325.292546	-2186.497125	55.714057	334.160145	-2195.759986	54.319101	374.614409	-2240.020062	28.961731	427.369379	
930	4.645000	-1813.242635	1480.911257	287.417303	-1951.082607	1526.781652	280.290179	-1957.656463	1521.839159	407.464474	-2089.121054	1430.734930	345.050088	-2257.709621	1147.134996	275.838817	-1982.996044	1299.140929	317.531213	-2024.054092	1415.024580	152.366276	-2106.724329	1279.396384	28.677663	-2108.462056	1227.387336	35.907563	-2135.942019	1231.957450	-13.744684	-2198.355838	1192.839324	-58.609577	-2254.522852	1166.419690	20.914434	-2140.088638	933.511531	-48.649171	-2112.476942	957.095424	18.827250	-2062.451511	884.338316	14.739906	-2032.623606	1336.172008	518.240442	-2106.288091	1172.206981	598.450687	-2082.230940	1133.446854	584.803015	-2126.346280	1106.518684	615.410121	-2147.083736	997.059514	617.660386	-2194.236678	993.571540	546.870990	-1950.560635	924.394155	462.802385	-1957.814594	854.031977	491.379650	-1871.107653	904.743283	466.918185	-2146.367928	939.321144	170.736895	-2183.293778	953.774845	414.012591	-2315.417054	1048.320584	267.778553	-2325.743616	1016.329383	241.131077	-2333.711241	1022.822824	296.963376	-2170.685006	643.184807	97.365954	-2113.037810	581.086818	100.430931	-2067.263905	591.720727	111.447982	-2118.164666	525.740574	128.204870	-2114.688380	469.309759	143.597107	-2112.629489	467.658997	276.326602	-2244.691999	419.684070	186.067507	-2284.859599	474.239419	128.061852	-2289.170182	440.410673	154.538655	-2370.744213	449.739365	182.732420	-2486.619524	520.723025	152.134010	-2483.171958	509.056548	239.941138	-2545.223664	591.170564	196.910697	-2536.140241	380.151629	227.008419	-2553.353514	410.435293	125.460206	-2529.146713	376.669787	177.985665	-2196.472220	773.742693	487.442281	-2147.160424	731.671754	484.424665	-2117.248029	741.741052	468.559144	-2156.577375	646.141311	480.780818	-2148.661651	455.080753	436.888592	-2139.394177	450.740766	289.568333	-2176.074178	247.140715	378.791223	-2274.293311	206.938489	410.389734	-2234.694018	185.411211	395.650415	-2248.028637	141.660264	360.358696	-2323.673097	104.239133	381.184641	-2312.827616	112.363452	297.595485	-2412.780137	59.364937	325.382700	-2186.611704	55.911555	334.659179	-2195.924917	54.323787	375.006287	-2240.430144	28.831281	427.636382	
931	4.650000	-1786.879700	1482.188006	286.216542	-1925.020004	1527.351365	279.555245	-1930.905414	1522.760919	406.805984	-2062.699652	1430.548356	345.651060	-2230.286647	1145.519178	277.146221	-1955.610013	1298.998642	316.480319	-1998.649765	1415.933341	152.404154	-2084.108102	1282.061066	28.830930	-2085.825342	1230.234902	35.442684	-2114.326235	1235.258639	-13.590085	-2178.637466	1197.517506	-58.509380	-2233.748001	1170.524199	21.627216	-2128.218621	936.486958	-56.985315	-2098.897845	957.188894	11.037640	-2051.406831	882.607328	3.833751	-2003.746592	1336.293407	517.573239	-2069.787402	1168.696297	595.312315	-2045.141220	1130.976625	579.971936	-2087.429973	1102.033017	611.176871	-2104.325986	991.555249	611.407364	-2151.756065	986.371369	539.730952	-1907.793381	931.341649	452.791256	-1911.210934	860.026489	480.154857	-1827.370110	915.175534	455.390416	-2119.416837	937.760290	171.345583	-2156.157446	951.587379	416.023780	-2288.000325	1046.813751	269.153004	-2298.809496	1014.897211	242.657267	-2306.235918	1021.689602	298.502188	-2131.582655	646.511917	98.340917	-2070.475194	587.706712	101.663266	-2025.416062	600.739916	113.022548	-2072.453721	532.293980	129.715304	-2065.299719	476.451834	145.903684	-2063.750731	475.329532	278.731286	-2193.340458	424.184073	188.095134	-2234.063224	477.046767	129.117617	-2237.985875	443.531558	156.003503	-2319.941239	451.399456	183.402573	-2438.438513	519.103669	151.608687	-2435.190340	508.510090	239.675875	-2500.204592	588.029743	195.097086	-2483.600211	377.839738	227.339380	-2500.775268	406.578235	125.276210	-2476.035529	374.112254	178.480733	-2173.465491	770.999513	487.994120	-2125.501821	727.442730	485.239650	-2095.267280	736.606457	469.559941	-2137.629870	642.244867	481.435460	-2135.181890	450.786515	437.853568	-2126.048853	444.951258	289.204507	-2169.946637	243.725253	379.193942	-2269.420839	206.770423	411.142242	-2230.572317	183.853801	396.225995	-2245.731975	140.737855	360.877838	-2322.899736	105.831893	382.113752	-2311.781850	114.427186	298.377773	-2412.682543	62.170988	325.690246	-2186.702470	56.084533	335.193975	-2196.054519	54.280592	375.418621	-2240.800379	28.603481	427.906010	
932	4.655000	-1760.471077	1483.725482	285.040529	-1898.910374	1528.200140	278.762552	-1904.202174	1523.911953	406.083110	-2036.000627	1430.666377	346.028585	-2202.592791	1144.196053	278.505245	-1928.184776	1299.311053	315.372630	-1973.106111	1417.056635	152.377000	-2061.605115	1285.407426	28.718905	-2063.051771	1233.937340	34.551283	-2092.951293	1239.430822	-13.686907	-2159.043639	1202.894882	-58.372954	-2212.850462	1175.312350	22.485901	-2115.936640	940.610126	-64.329752	-2084.767294	958.708034	3.845322	-2039.737885	882.524682	-6.298670	-1974.757545	1337.156218	516.785955	-2033.491196	1166.402858	592.009852	-2008.246075	1129.752482	575.127771	-2048.738287	1098.903355	606.803615	-2061.837081	987.731674	604.978898	-2110.243822	981.356366	533.431268	-1865.656610	939.966552	442.918134	-1865.294404	867.834692	468.824076	-1784.421464	927.242523	444.052578	-2092.320852	936.363359	171.784753	-2128.657036	949.546489	418.060754	-2260.227190	1045.531991	270.458551	-2271.507899	1013.737372	244.045968	-2278.369657	1020.698865	299.908620	-2092.442311	650.759800	99.520331	-2028.011783	595.477921	103.162425	-1983.825664	610.907687	114.908081	-2026.884744	540.096569	131.337155	-2016.170668	484.920403	148.421261	-2015.421836	484.369803	281.243891	-2142.002015	429.151272	190.139141	-2183.510336	480.349961	130.455150	-2186.889926	447.026739	157.546332	-2269.221263	452.800107	184.147142	-2390.655461	516.432505	151.102149	-2387.451809	506.910846	239.509969	-2455.752487	583.414931	193.281739	-2430.747901	374.487222	227.881647	-2448.085436	401.529251	125.327223	-2422.670962	370.539727	179.181804	-2150.228386	768.220102	488.429631	-2103.781359	723.085164	485.887367	-2073.257866	731.189922	470.334005	-2118.834329	638.353045	481.973242	-2122.982712	446.313486	438.624846	-2113.047537	439.345302	290.136562	-2164.293452	240.627762	379.562372	-2264.829372	206.721015	411.862326	-2226.721757	182.535269	396.787321	-2243.567929	140.106134	361.378755	-2322.095594	107.600102	383.099494	-2310.699515	116.653922	299.213128	-2412.528371	65.342110	326.123074	-2186.755673	56.188106	335.712476	-2196.144032	54.169745	375.800744	-2241.147565	28.331641	428.133803	
